<?xml version="1.0" encoding="UTF-8"?>
<svg id="Capa_2" data-name="Capa 2" xmlns="http://www.w3.org/2000/svg" viewBox="0 0 224.99 248.3">
  <g id="Capa_2-2" data-name="Capa 2">
    <path d="m104.15.23s-9,1.13-14.14,11.57L.32,233.11s-3.21,19.93,10.61,14.14,49.5-22.18,54.64-30.54c0,0,1.29,5.46,6.43-15.11s22.5-120.21,22.5-120.21c0,0,1.45-4.66,3.38-4.34s4.02.64,4.34,4.5-.96,102.7-.96,102.7c0,0-.48,12.38,11.57,13.18s99.32-18.64,99.32-18.64c0,0,10.61-4.18,12.54-13.18s-5.79-18.32-5.79-18.32L116.68,6.82S109-1.48,104.15.23Z"/>
  </g>
</svg>